<svg width="76" height="38" viewBox="0 0 76 38" fill="none" xmlns="http://www.w3.org/2000/svg">
<g clip-path="url(#clip0_849_40036)">
<g clip-path="url(#clip1_849_40036)">
<path d="M38 0C17.0133 0 0 8.5073 0 19C0 29.4927 17.0133 38 38 38C58.9867 38 76 29.4927 76 19C76 8.5073 58.9881 0 38 0ZM38 35.0011C18.6689 35.0011 2.99887 27.8371 2.99887 19.0013C2.99887 10.1656 18.6702 3.00021 38 3.00021C57.3298 3.00021 73.0011 10.1643 73.0011 19C73.0011 27.8357 57.3311 34.9998 38 34.9998V35.0011ZM33.2074 15.6673V12.6671H43.928V15.6673H40.0672V25.3342H37.067V15.6673H33.2061H33.2074ZM56.8686 12.6671V25.3342H53.8684L48.427 17.7935V25.3342H45.4268V12.6671H48.427L53.8684 20.2079V12.6671H56.8686ZM19.0429 25.3342V12.6671H22.0431L25.3758 17.7935L28.7085 12.6671H31.7087V25.3342H28.7085V18.1688L26.4335 21.6664H24.3181L22.0431 18.1688V25.3342H19.0429Z" fill="#202020"/>
</g>
</g>
<defs>
<clipPath id="clip0_849_40036">
<rect width="76" height="38" fill="white"/>
</clipPath>
<clipPath id="clip1_849_40036">
<rect width="76" height="38" fill="white"/>
</clipPath>
</defs>
</svg>
