<svg width="36" height="35" viewBox="0 0 36 35" fill="none" xmlns="http://www.w3.org/2000/svg">
<rect x="0.0439453" y="0.0644531" width="34.6789" height="34.6789" rx="6.53086" fill="#FFCB05"/>
<mask id="mask0_952_48533" style="mask-type:alpha" maskUnits="userSpaceOnUse" x="0" y="0" width="35" height="35">
<rect x="0.0439453" y="0.0644531" width="34.6789" height="34.6789" rx="6.53086" fill="#FFCA05"/>
</mask>
<g mask="url(#mask0_952_48533)">
<ellipse cx="17.8228" cy="31.5114" rx="20.1314" ry="6.75944" fill="black"/>
</g>
<path d="M17.0953 6.56748C16.5979 6.56748 16.1377 6.81244 15.8482 7.24296C15.633 6.81244 15.2395 6.56748 14.7793 6.56748C14.3414 6.56748 13.948 6.78274 13.6733 7.1242V6.54521L12.545 6.78274V10.2344H13.7179V7.91102C13.8737 7.68091 14.089 7.5473 14.3414 7.5473C14.6754 7.5473 14.8387 7.81452 14.8387 8.34897V10.2344H16.0115V8.04463V7.91844C16.1674 7.68091 16.3827 7.5473 16.635 7.5473C16.9691 7.5473 17.1324 7.81452 17.1324 8.34897V10.2344H18.3052V8.04463C18.3052 7.11677 17.8301 6.56748 17.0953 6.56748ZM21.6648 6.6714L20.8037 8.91311L19.9278 6.6714H18.6734L20.2322 10.227L19.5344 11.7189H20.6775L22.8153 6.6714H21.6648Z" fill="black"/>
<path d="M12.2805 27.7329V30.9883H14.779V30.2511H13.1859V27.7329H12.2805ZM15.2374 30.9883H16.1428V27.7329H15.2374V30.9883ZM17.6707 28.4701V30.9883H18.5761V28.4701H19.6398V27.7329H16.6021V28.4701H17.6707ZM20.9983 30.2759V29.7069H22.4628V28.9945H20.9983V28.4453H22.7349V27.7329H20.093V30.9883H22.7992V30.2759H20.9983Z" fill="white"/>
<g clip-path="url(#clip0_952_48533)">
<path d="M17.3903 13.168C12.0559 13.168 7.73145 15.3302 7.73145 17.9974C7.73145 20.6646 12.0559 22.8268 17.3903 22.8268C22.7247 22.8268 27.0491 20.6646 27.0491 17.9974C27.0491 15.3302 22.7247 13.168 17.3903 13.168ZM17.3903 22.0643C12.4769 22.0643 8.49389 20.2435 8.49389 17.9974C8.49389 15.7513 12.4769 13.9304 17.3903 13.9304C22.3036 13.9304 26.2867 15.7513 26.2867 17.9974C26.2867 20.2435 22.3036 22.0643 17.3903 22.0643ZM16.1722 17.1501V16.3875H18.897V17.1501H17.9161V19.6072H17.1533V17.1501H16.1722ZM22.1862 16.3875V19.6072H21.4237L20.0409 17.6906V19.6072H19.2784V16.3875H20.0409L21.4237 18.3042V16.3875H22.1862ZM12.5717 19.6072V16.3875H13.3342L14.1813 17.6906L15.0284 16.3875H15.7905V19.6072H15.0284V17.7861L14.4501 18.675H13.9125L13.3342 17.7861V19.6072H12.5717Z" fill="black"/>
</g>
<defs>
<clipPath id="clip0_952_48533">
<rect width="22.9233" height="15.2822" fill="white" transform="translate(5.92578 10.3555)"/>
</clipPath>
</defs>
</svg>
